Coordinates
version=1
nRows=43
nColumns=12
inDegrees=yes

Units are S.I. units (second, meters, Newtons, ...)
Angles are in degrees

endheader
time	SC_y	SC_z	SC_x	AC_y	AC_z	AC_x	GH_y	GH_z	GH_yy	EL_x	PS_y
       0.0              -48.67          22.75          62.88          60.34         0.1012        -0.9345          11.29           5.41          120.1          102.4          140.7
   0.02283              -48.67          22.75          62.88          60.33         0.1018        -0.9353          11.27           5.41          120.1          102.4          140.6
   0.04565              -48.66          22.74          62.88          60.33         0.1024         -0.936          11.26           5.41          120.1          102.4          140.6
   0.06848              -48.65          22.74          62.87          60.33          0.103        -0.9369          11.24          5.411          120.1          102.4          140.6
    0.0913              -48.65          22.73          62.87          60.32         0.1037        -0.9378          11.21          5.411          120.1          102.4          140.6
    0.1141              -48.64          22.73          62.86          60.32         0.1044        -0.9387          11.19          5.411          120.1          102.4          140.6
     0.137              -48.63          22.72          62.86          60.31         0.1052        -0.9397          11.17          5.411          120.1          102.4          140.6
    0.1598              -48.63          22.72          62.85          60.31          0.106        -0.9408          11.14          5.411          120.0          102.4          140.5
    0.1826              -48.62          22.71          62.85           60.3         0.1069         -0.942          11.11          5.411          120.0          102.4          140.5
    0.2054              -48.61          22.71          62.84           60.3         0.1079        -0.9432          11.08          5.411          120.0          102.4          140.5
    0.2283               -48.6           22.7          62.83          60.29         0.1089        -0.9445          11.05          5.411          120.0          102.4          140.5
    0.2511              -48.59          22.69          62.82          60.28           0.11         -0.946          11.02          5.411          120.0          102.4          140.4
    0.2739              -48.58          22.68          62.82          60.28         0.1112        -0.9475          10.98          5.411          119.9          102.4          140.4
    0.2967              -48.56          22.67          62.81          60.27         0.1125        -0.9492          10.94          5.411          119.9          102.4          140.4
    0.3196              -48.55          22.66           62.8          60.26         0.1139         -0.951           10.9          5.411          119.9          102.4          140.3
    0.3424              -48.54          22.65          62.79          60.25         0.1154         -0.953          10.85          5.411          119.9          102.4          140.3
    0.3652              -48.52          22.64          62.78          60.24          0.117        -0.9551           10.8          5.412          119.8          102.4          140.2
     0.388               -48.5          22.63          62.77          60.23         0.1188        -0.9574          10.75          5.412          119.8          102.4          140.2
    0.4109              -48.49          22.62          62.75          60.22         0.1207        -0.9599          10.69          5.412          119.7          102.4          140.1
    0.4337              -48.47           22.6          62.74           60.2         0.1229        -0.9627          10.62          5.412          119.7          102.4          140.1
    0.4565              -48.44          22.58          62.72          60.19         0.1252        -0.9658          10.55          5.412          119.7          102.4          140.0
    0.4793              -48.42          22.57          62.71          60.17         0.1278        -0.9691          10.47          5.412          119.6          102.3          140.0
    0.5022              -48.39          22.55          62.69          60.16         0.1306        -0.9728          10.38          5.413          119.5          102.3          139.9
     0.525              -48.36          22.52          62.67          60.14         0.1338        -0.9769          10.28          5.413          119.5          102.3          139.8
    0.5478              -48.33           22.5          62.64          60.12         0.1373        -0.9815          10.17          5.413          119.4          102.3          139.7
    0.5707              -48.29          22.47          62.62          60.09         0.1412        -0.9866          10.05          5.413          119.3          102.3          139.6
    0.5935              -48.25          22.44          62.59          60.07         0.1456        -0.9923          9.916          5.414          119.2          102.3          139.5
    0.6163               -48.2          22.41          62.55          60.03         0.1505        -0.9987          9.764          5.414          119.1          102.3          139.4
    0.6391              -48.15          22.37          62.52           60.0          0.156         -1.006          9.591          5.414          119.0          102.3          139.2
     0.662              -48.09          22.32          62.47          59.96         0.1624         -1.014          9.395          5.415          118.9          102.3          139.1
    0.6848              -48.02          22.27          62.43          59.92         0.1696         -1.024          9.171          5.415          118.7          102.3          138.9
    0.7076              -47.94          22.21          62.37          59.87         0.1778         -1.034          8.915          5.416          118.6          102.2          138.6
    0.7304              -47.85          22.15          62.31          59.81         0.1874         -1.047          8.618          5.417          118.4          102.2          138.4
    0.7533              -47.75          22.07          62.23          59.74         0.1985         -1.061          8.274          5.417          118.2          102.2          138.1
    0.7761              -47.62          21.98          62.14          59.66         0.2115         -1.078          7.871          5.418          117.9          102.2          137.8
    0.7989              -47.48          21.87          62.04          59.57         0.2268         -1.098          7.396           5.42          117.6          102.1          137.4
    0.8217              -47.31          21.74          61.92          59.45          0.245         -1.122          6.832          5.421          117.2          102.1          136.9
    0.8446               -47.1          21.59          61.77          59.32         0.2668          -1.15          6.155          5.422          116.8          102.0          136.3
    0.8674              -46.85          21.41           61.6          59.16         0.2932         -1.185          5.337          5.424          116.2          102.0          135.6
    0.8902              -46.54          21.18          61.38          58.96         0.3254         -1.227          4.337          5.427          115.6          101.9          134.8
     0.913              -46.16           20.9          61.11          58.72         0.3652         -1.279          3.103           5.43          114.8          101.8          133.7
    0.9359              -45.69          20.55          60.78          58.41         0.4148         -1.343          1.564          5.433          113.8          101.7          132.4
    0.9587               -45.1          20.11          60.36          58.03         0.4773         -1.425        -0.3742          5.438          112.5          101.6          130.8
